HIERARCHY
ROOT SpineBase
{
  OFFSET 0.000000 0.000000 0.000000
  CHANNELS 6 Xposition Yposition Zposition Zrotation Xrotation Yrotation
  JOINT SpineMid
  {
    OFFSET -0.000000 31.659979 0.000000
    CHANNELS 3 Zrotation Xrotation Yrotation
    JOINT SpineShoulder
    {
      OFFSET -0.245345 23.410424 -0.733896
      CHANNELS 3 Zrotation Xrotation Yrotation
      JOINT Neck
      {
        OFFSET -0.165578 7.716885 -0.579883
        CHANNELS 3 Zrotation Xrotation Yrotation
        JOINT Head
        {
          OFFSET -0.787690 14.527770 0.616535
          CHANNELS 3 Zrotation Xrotation Yrotation
          End Site
          {
            OFFSET 0 0 0
          }
        }
      }
      JOINT ShoulderLeft
      {
        OFFSET -16.565013 -5.078350 8.269071
        CHANNELS 3 Zrotation Xrotation Yrotation
        JOINT ElbowLeft
        {
          OFFSET -5.369654 -25.687623 1.243096
          CHANNELS 3 Zrotation Xrotation Yrotation
          JOINT WristLeft
          {
            OFFSET -4.808662 -21.862237 -3.684416
            CHANNELS 3 Zrotation Xrotation Yrotation
            JOINT HandLeft
            {
              OFFSET -3.707747 -5.940173 -0.816551
              CHANNELS 3 Zrotation Xrotation Yrotation
              JOINT HandTipLeft
              {
                OFFSET -1.598536 -7.387890 0.526370
                CHANNELS 3 Zrotation Xrotation Yrotation
                End Site
                {
                  OFFSET 0 0 0
                }
              }
              JOINT ThumbLeft
              {
                OFFSET 2.238024 -2.430936 -1.257278
                CHANNELS 3 Zrotation Xrotation Yrotation
                End Site
                {
                  OFFSET 0 0 0
                }
              }
            }
          }
        }
      }
      JOINT ShoulderRight
      {
        OFFSET 13.794222 -3.320160 -8.012186
        CHANNELS 3 Zrotation Xrotation Yrotation
        JOINT ElbowRight
        {
          OFFSET 5.445179 -25.707557 -2.409627
          CHANNELS 3 Zrotation Xrotation Yrotation
          JOINT WristRight
          {
            OFFSET 2.149788 -22.472666 -6.344468
            CHANNELS 3 Zrotation Xrotation Yrotation
            JOINT HandRight
            {
              OFFSET -1.311732 -7.163508 0.246854
              CHANNELS 3 Zrotation Xrotation Yrotation
              JOINT HandTipRight
              {
                OFFSET 1.203342 -7.220342 -0.073123
                CHANNELS 3 Zrotation Xrotation Yrotation
                End Site
                {
                  OFFSET 0 0 0
                }
              }
              JOINT ThumbRight
              {
                OFFSET -3.503542 -0.838698 -1.745591
                CHANNELS 3 Zrotation Xrotation Yrotation
                End Site
                {
                  OFFSET 0 0 0
                }
              }
            }
          }
        }
      }
    }
  }
  JOINT HipLeft
  {
    OFFSET -6.007001 -0.027859 -0.993548
    CHANNELS 3 Zrotation Xrotation Yrotation
    JOINT KneeLeft
    {
      OFFSET 2.168582 -38.063906 5.521800
      CHANNELS 3 Zrotation Xrotation Yrotation
      JOINT AnkleLeft
      {
        OFFSET 4.856152 -37.561806 5.649857
        CHANNELS 3 Zrotation Xrotation Yrotation
        JOINT FootLeft
        {
          OFFSET -4.318634 -4.326242 -11.145402
          CHANNELS 3 Zrotation Xrotation Yrotation
          End Site
          {
            OFFSET 0 0 0
          }
        }
      }
    }
  }
  JOINT HipRight
  {
    OFFSET 4.325984 1.104973 -6.772404
    CHANNELS 3 Zrotation Xrotation Yrotation
    JOINT KneeRight
    {
      OFFSET 6.455725 -37.553129 0.878969
      CHANNELS 3 Zrotation Xrotation Yrotation
      JOINT AnkleRight
      {
        OFFSET 4.980929 -38.228748 6.678635
        CHANNELS 3 Zrotation Xrotation Yrotation
        JOINT FootRight
        {
          OFFSET -2.844735 -7.997242 -4.486888
          CHANNELS 3 Zrotation Xrotation Yrotation
          End Site
          {
            OFFSET 0 0 0
          }
        }
      }
    }
  }
}
MOTION
Frames: 8
Frame Time: 0.033333
83.195994 84.066723 387.350363 0.000000 0.000000 29.216670 -0.000000 0.000000 -29.216670 -0.000000 0.000000 0.000000 -0.000000 0.000000 0.000000 0.000000 0.000000 0.000000 -0.000000 0.000000 0.000000 -0.000000 0.000000 0.000000 -0.000000 0.000000 0.000000 -0.000000 0.000000 0.000000 0.000000 0.000000 0.000000 0.000000 0.000000 0.000000 -0.000000 0.000000 0.000000 -0.000000 0.000000 0.000000 -0.000000 0.000000 0.000000 -0.000000 0.000000 0.000000 0.000000 0.000000 0.000000 0.000000 0.000000 0.000000 -0.000000 0.000000 -29.216670 -0.000000 0.000000 0.000000 -0.000000 0.000000 0.000000 0.000000 0.000000 0.000000 -0.000000 0.000000 -29.216670 -0.000000 0.000000 0.000000 -0.000000 0.000000 0.000000 0.000000 0.000000 0.000000
83.046437 84.044519 387.257554 0.168259 0.036459 29.181754 -0.164680 0.050208 -29.181735 -0.000000 0.000000 0.000000 -0.000000 0.000000 0.000000 0.000000 0.000000 0.000000 -0.000000 0.000000 0.000000 -0.000000 0.000000 0.000000 3.109164 1.270586 -1.274689 -2.594571 -0.622802 1.095709 0.000000 0.000000 0.000000 0.000000 0.000000 0.000000 -0.000000 0.000000 0.000000 -0.000000 0.000000 0.000000 0.046632 2.483345 -0.454579 -1.528883 -1.202620 0.635623 0.000000 0.000000 0.000000 0.000000 0.000000 0.000000 -0.164680 0.050208 -29.181735 -0.000000 0.000000 0.000000 -0.000000 0.000000 0.000000 0.000000 0.000000 0.000000 -0.164680 0.050208 -29.181735 -0.000000 0.000000 0.000000 0.742148 1.773750 -1.052135 0.000000 0.000000 0.000000
82.901034 84.020710 387.169728 0.313914 0.070267 29.167126 -0.308356 0.091631 -29.167072 -0.000000 0.000000 0.000000 -0.000000 0.000000 0.000000 0.000000 0.000000 0.000000 0.357018 0.732927 -0.138350 -0.463570 0.471840 -0.113433 6.598905 0.946106 -2.031625 -5.197615 -1.088773 2.019645 0.000000 0.000000 0.000000 0.000000 0.000000 0.000000 -0.000000 0.000000 0.000000 0.528338 -0.835668 -0.225616 -0.341640 5.646323 -0.653409 -3.049370 -2.423848 1.122192 0.000000 0.000000 0.000000 0.000000 0.000000 0.000000 -0.308356 0.091631 -29.167072 -0.000000 0.000000 0.000000 -0.572283 0.842055 0.623054 0.000000 0.000000 0.000000 -0.308356 0.091631 -29.167072 -0.000000 0.000000 0.000000 1.132918 3.828362 -2.005071 0.000000 0.000000 0.000000
82.759786 83.995295 387.086887 0.436951 0.101420 29.173081 -0.430962 0.124437 -29.173000 -0.000000 0.000000 0.000000 -0.000000 0.000000 0.000000 0.000000 0.000000 0.000000 0.637336 1.108164 -0.207313 -0.309641 0.563112 -0.226080 9.786876 0.932007 -2.652745 -7.781047 -1.340072 2.769217 0.000000 0.000000 0.000000 0.000000 0.000000 0.000000 -0.000000 0.000000 0.000000 0.716332 -1.040946 -0.295893 -0.272189 8.030121 -0.995236 -4.536715 -3.682575 1.467483 0.000000 0.000000 0.000000 0.000000 0.000000 0.000000 -0.050700 -0.731934 -29.094386 -0.748722 0.563381 -0.072917 -0.879590 1.362305 0.882737 0.000000 0.000000 0.000000 -0.430962 0.124437 -29.173000 -0.000000 0.000000 0.000000 1.179841 6.162916 -2.843774 0.000000 0.000000 0.000000
82.622691 83.968274 387.009029 0.537365 0.129915 29.199797 -0.532458 0.148753 -29.199715 -0.000000 0.000000 0.000000 -0.000000 0.000000 0.000000 0.000000 0.000000 0.000000 0.985537 1.489182 -0.277098 0.096291 0.558268 -0.372155 12.846032 0.584483 -2.948901 -10.305594 -1.327995 3.345627 0.000000 0.000000 0.000000 0.000000 0.000000 0.000000 -0.000000 0.000000 0.000000 0.853758 -1.102628 -0.338983 -0.037021 10.127118 -1.357933 -5.970468 -4.995635 1.681540 0.000000 0.000000 0.000000 0.000000 0.000000 0.000000 -0.025443 -0.917660 -29.095717 -0.961658 0.685229 -0.094845 -1.199178 1.944160 1.108806 0.000000 0.000000 0.000000 -0.532458 0.148753 -29.199715 -0.000000 0.000000 0.000000 0.887889 8.769963 -3.547916 0.000000 0.000000 0.000000
82.489750 83.939648 386.936155 0.615157 0.155750 29.247334 -0.612832 0.164662 -29.247290 -0.000000 0.000000 0.000000 -0.858392 0.106763 0.043034 0.000000 0.000000 0.000000 1.401654 1.875899 -0.348448 0.749743 0.456674 -0.546605 15.731505 -0.081857 -2.875248 -12.719212 -1.016469 3.752258 0.000000 0.000000 0.000000 0.000000 0.000000 0.000000 -0.000000 0.000000 0.000000 0.940395 -1.018989 -0.355228 0.368864 11.941733 -1.746544 -7.335422 -6.377348 1.776148 0.000000 0.000000 0.000000 0.000000 0.000000 0.000000 0.020791 -1.075043 -29.118373 -1.156895 0.774585 -0.116062 -1.529470 2.583795 1.302239 0.000000 0.000000 0.000000 -0.612832 0.164662 -29.247290 0.554106 -0.594698 0.022160 -0.290783 12.227927 -4.111292 0.000000 0.000000 0.000000
82.358228 83.913627 386.870177 0.640262 0.178545 29.365331 -0.645548 0.158369 -29.365437 -0.000000 0.000000 0.000000 -0.000000 0.000000 0.000000 0.000000 0.000000 0.000000 1.979474 2.376385 -0.444128 1.951721 0.076492 -0.762993 19.403116 -1.469665 -2.081004 -15.479650 -0.315098 4.077918 0.000000 0.000000 0.000000 0.000000 0.000000 0.000000 -0.000000 0.000000 0.000000 0.985014 -0.651571 -0.335087 0.763031 14.355710 -2.360113 -7.607305 -9.137145 1.930522 0.000000 0.000000 0.000000 0.000000 0.000000 0.000000 0.130452 -1.215795 -29.209223 -1.348039 0.820571 -0.139398 -2.492383 4.534046 1.772762 0.000000 0.000000 0.000000 -0.645548 0.158369 -29.365437 0.570439 -0.591328 0.025515 -2.198481 18.486073 -4.798906 0.000000 0.000000 0.000000
82.240501 83.879261 386.790806 0.659832 0.202307 29.478471 -0.673963 0.148590 -29.478762 -0.000000 0.000000 0.000000 -0.000000 0.000000 0.000000 0.000000 0.000000 0.000000 2.589755 2.826921 -0.532765 3.295410 -0.333293 -0.978253 22.171556 -2.920493 -0.851405 -18.004222 0.410824 4.213813 0.000000 0.000000 0.000000 0.000000 0.000000 0.000000 -0.000000 0.000000 0.000000 0.928848 -0.215266 -0.281016 1.917696 15.533783 -2.856933 -9.419980 -10.755524 1.699463 0.000000 0.000000 0.000000 0.000000 0.000000 0.000000 0.215269 -1.336749 -29.300265 -1.502523 0.859902 -0.158001 -4.442008 8.584885 2.594430 0.000000 0.000000 0.000000 -0.673963 0.148590 -29.478762 0.586446 -0.568005 0.031306 -4.145195 21.686855 -4.415370 0.000000 0.000000 0.000000
